<svg xmlns="http://www.w3.org/2000/svg" xmlns:xlink="http://www.w3.org/1999/xlink" id="Layer_1" x="0px" y="0px" viewBox="0 0 224 72" style="enable-background:new 0 0 224 72;" xml:space="preserve"><style type="text/css">	.st0{fill:#FFFFFF;}	.st1{fill:#A7A7AA;}	.st2{fill:none;}</style><path class="st0" d="M34.82,20.97c0.06,0.62,0.1,1.29,0.12,2.02l13.91-0.94c-0.07-5.34-1.88-9.63-5.44-12.88 c-0.12-0.1-0.23-0.18-0.34-0.28c2.54,3.01,3.85,6.76,3.91,11.26L34.82,20.97z"></path><path class="st0" d="M36.7,45.21c-3.74,3.18-8.48,4.77-14.19,4.77c-5.46,0-9.92-1.51-13.4-4.53c0.18,0.2,0.33,0.41,0.51,0.6 c3.65,3.88,8.57,5.82,14.77,5.82c5.71,0,10.44-1.59,14.18-4.77c3.75-3.18,6.39-7.26,7.93-12.25l-2.43-0.29 C42.49,38.83,40.03,42.38,36.7,45.21"></path><path class="st0" d="M27.13,12.74c-3.66,0-6.16,2.5-7.5,7.51c-1.34,5-2.01,8.94-2.01,11.81c0,3.21,0.93,5.31,2.79,6.31 c-0.61-1.12-0.92-2.58-0.92-4.41c0-2.88,0.67-6.81,2.01-11.82c1.34-5,3.84-7.51,7.5-7.51c1.16,0,2.12,0.21,2.9,0.62 c-0.08-0.16-0.16-0.31-0.26-0.45C30.76,13.43,29.26,12.74,27.13,12.74"></path><path class="st0" d="M79.06,16.38c-0.73-0.11-1.29-0.16-1.71-0.16c-0.13,0-0.27,0.01-0.4,0.01l-1.39,10.27 c-1.25-0.07-2.09-0.1-2.5-0.1c-3.01,0-5.22,0.65-6.63,1.95c-1.41,1.3-2.41,3.6-3.02,6.91l-2.48,13.76H49.26l-0.35,1.89H62.8 l2.48-13.76c0.6-3.31,1.61-5.61,3.02-6.92c1.41-1.3,3.62-1.95,6.63-1.95c0.41,0,1.25,0.03,2.5,0.1L79.06,16.38z"></path><path class="st1" d="M67.02,18.18l0.17-0.97h-2.21l-1.12,6.23C64.75,21.31,65.8,19.56,67.02,18.18"></path><path class="st0" d="M91.96,40.77c0-3.05,2.59-4.93,7.76-5.65c0.14-0.65,0.24-1.36,0.32-2.12c-6.64,0.47-9.95,2.42-9.95,5.87 c0,1.47,0.65,2.36,1.95,2.69C92,41.32,91.96,41.06,91.96,40.77"></path><path class="st0" d="M114.71,19.53c0.93,1.31,1.4,2.86,1.4,4.67c0,1.44-0.86,6.56-2.6,15.35c-0.65,3.27-0.97,5.44-0.97,6.5 c0,0.87,0.12,1.86,0.36,2.97h-12.52c0,0.11-0.01,0.22-0.01,0.33c0,0.4,0.04,0.92,0.11,1.57h14.29c-0.24-1.11-0.36-2.1-0.36-2.97 c0-1.07,0.32-3.24,0.98-6.5c1.73-8.79,2.6-13.91,2.6-15.36C117.98,23.32,116.89,21.14,114.71,19.53"></path><path class="st0" d="M99.41,24.12c0.91,0,1.66,0.11,2.27,0.31c-0.28-1.47-1.66-2.2-4.14-2.2c-2.75,0-4.77,1.25-6.07,3.77l-9.25-1.74 c-0.28,0.45-0.54,0.91-0.77,1.4l11.09,2.09c0.31-0.03,0.62-0.07,0.94-0.1C94.78,25.3,96.76,24.12,99.41,24.12"></path><path class="st0" d="M98.76,43.43c-2.87,4.24-6.87,6.36-12,6.36c-3.28,0-5.97-0.83-8.06-2.49c0.42,0.57,0.92,1.12,1.51,1.62 c2.14,1.85,4.94,2.77,8.42,2.77c3.97,0,7.26-1.29,9.88-3.83c0-0.14-0.01-0.29-0.01-0.4C98.5,46.31,98.59,44.97,98.76,43.43"></path><polygon class="st0" points="162.02,5.36 154.12,49.02 143.35,49.02 143.01,50.91 155.99,50.91 164.23,5.36 "></polygon><path class="st0" d="M131.2,50.02c-2.85,0-5.35-0.9-7.52-2.69c0.27,0.35,0.56,0.67,0.86,0.99c2.39,2.4,5.23,3.6,8.53,3.6 c3.03,0,5.73-1.05,8.12-3.13l0.85-4.87C139.05,47.99,135.44,50.02,131.2,50.02"></path><path class="st0" d="M135.38,38.7c0-2.34,0.55-5.27,1.64-8.79c1.1-3.52,2.88-5.29,5.36-5.29c0.61,0,1.15,0.13,1.65,0.36 c-0.18-0.46-0.46-0.89-0.87-1.25c-0.74-0.67-1.63-1-2.65-1c-2.48,0-4.26,1.77-5.36,5.29c-1.1,3.52-1.64,6.45-1.64,8.79 c0,2.35,0.76,3.8,2.28,4.35C135.53,40.48,135.38,39.68,135.38,38.7"></path><path class="st1" d="M145.77,18.66c-0.25-0.23-0.5-0.44-0.77-0.64c0.24,0.36,0.47,0.75,0.68,1.16L145.77,18.66z"></path><polygon class="st0" points="182.63,5.36 174.74,49.02 163.07,49.02 162.72,50.91 176.61,50.91 184.85,5.36 "></polygon><path class="st0" d="M213.13,46.95c-3.55,2.04-7.5,3.06-11.84,3.06c-5.42,0-9.81-1.42-13.19-4.24c0.54,0.66,1.13,1.28,1.81,1.86 c3.39,2.86,7.8,4.28,13.25,4.28c4.34,0,8.28-1.02,11.84-3.06c3.55-2.04,6.12-4.72,7.72-8.02l-2.71-0.4 C218.42,43.05,216.13,45.23,213.13,46.95"></path><path class="st0" d="M224.05,36.53c0.27-1.44,0.4-2.72,0.4-3.83c0-4.93-1.63-8.88-4.86-11.86c-0.14-0.12-0.29-0.23-0.43-0.35 c2.27,2.76,3.43,6.19,3.43,10.31c0,1.11-0.14,2.39-0.4,3.83h-25.15c-0.12,0.92-0.19,1.6-0.19,2.05c0,1.48,0.51,2.63,1.54,3.45 c0.24,0.2,0.51,0.37,0.78,0.51c-0.29-0.6-0.45-1.28-0.45-2.07c0-0.45,0.06-1.13,0.18-2.05H224.05z"></path><path class="st0" d="M202.29,25.6c1.26-1.08,2.65-1.62,4.2-1.62c0.85,0,1.59,0.17,2.21,0.49c-0.19-0.37-0.41-0.73-0.7-1.05 c-0.81-0.89-1.94-1.33-3.38-1.33c-1.54,0-2.94,0.54-4.19,1.62c-1.26,1.08-2.02,2.56-2.32,4.45h2.41 C200.93,27.15,201.51,26.29,202.29,25.6"></path><path class="st0" d="M34.83,43.31c3.34-2.83,5.79-6.37,7.38-10.63c0.2-0.53,0.39-1.06,0.56-1.61L29.53,29.5 c-0.87,2.72-1.91,4.67-3.1,5.88c-1.21,1.2-2.78,1.8-4.74,1.8c-1.24,0-2.29-0.23-3.13-0.69c-1.86-1.01-2.79-3.11-2.79-6.31 c0-2.87,0.67-6.81,2.01-11.81c1.33-5.01,3.84-7.51,7.5-7.51c2.12,0,3.62,0.69,4.52,2.07c0.09,0.14,0.17,0.29,0.25,0.45 c0.73,1.37,1.11,3.31,1.16,5.83l1.74-0.12l12.17-0.81c-0.07-4.5-1.37-8.25-3.91-11.26c-0.47-0.56-0.97-1.11-1.53-1.62 c-3.56-3.25-8.2-4.87-13.94-4.87c-7.88,0-14.08,2.71-18.58,8.13C2.66,14.04,0.4,20.27,0.4,27.29c0,6.09,1.82,11.09,5.47,14.97 c0.44,0.46,0.89,0.89,1.36,1.3c3.48,3.02,7.95,4.53,13.4,4.53C26.35,48.09,31.08,46.5,34.83,43.31"></path><path class="st0" d="M61.55,33.36c0.6-3.31,1.6-5.61,3.02-6.91c1.4-1.3,3.62-1.95,6.63-1.95c0.41,0,1.24,0.03,2.49,0.1l1.4-10.27 l0.23-1.75c-0.73-0.11-1.3-0.16-1.7-0.16c-3.4,0-6.21,1.3-8.47,3.87c-1.21,1.39-2.27,3.13-3.15,5.26l1.12-6.23l0.34-1.9H51.29 l-6.11,33.71h2.21h11.67L61.55,33.36z"></path><path class="st0" d="M110.67,44.15c0-1.07,0.33-3.23,0.97-6.51c1.73-8.79,2.6-13.9,2.6-15.35c0-1.8-0.48-3.35-1.41-4.67 c-0.73-1.04-1.73-1.93-3.04-2.66c-2.96-1.65-7.03-2.48-12.21-2.48c-10.25,0-16.86,3.12-19.88,9.38l2.64,0.49l9.24,1.74 c1.31-2.51,3.33-3.77,6.07-3.77c2.49,0,3.86,0.74,4.14,2.2c0.04,0.18,0.06,0.37,0.06,0.57c0,0.47-0.15,1.11-0.46,1.94 c-3.09,0.27-5.68,0.51-7.8,0.72c-0.33,0.04-0.63,0.07-0.94,0.1c-1.83,0.19-3.27,0.36-4.26,0.5c-2.21,0.33-4.38,1-6.5,2.02 c-2.12,1.02-3.75,2.4-4.91,4.12c-1.16,1.72-1.73,3.62-1.73,5.69c0,2.78,1.07,5.09,3.21,6.94c0.12,0.1,0.25,0.19,0.36,0.28 c2.1,1.65,4.78,2.49,8.06,2.49c5.13,0,9.13-2.12,11.99-6.36c-0.17,1.55-0.26,2.88-0.26,4.02c0,0.12,0.01,0.27,0.02,0.41 c0.01,0.33,0.04,0.7,0.09,1.16h1.76h12.53C110.78,46.01,110.67,45.01,110.67,44.15 M88.22,36.97c0-3.45,3.32-5.41,9.95-5.87 c-0.08,0.77-0.19,1.47-0.32,2.13c-0.47,2.36-1.23,3.99-2.3,4.88c-1.37,1.14-2.74,1.7-4.12,1.7c-0.48,0-0.9-0.06-1.26-0.15 C88.88,39.34,88.22,38.44,88.22,36.97"></path><path class="st0" d="M160.15,3.46l0.34-1.9h-13.85l-2.74,15.2l-0.09,0.52c-0.2-0.41-0.42-0.8-0.67-1.16 c-1.67-2.43-4.42-3.65-8.26-3.65c-5.16,0-9.4,2.24-12.69,6.71c-3.3,4.47-4.95,9.48-4.95,15.02c0,4.48,1.19,7.91,3.58,10.32 c0.33,0.33,0.65,0.63,1,0.91c2.17,1.79,4.67,2.69,7.52,2.69c4.24,0,7.86-2.03,10.84-6.09l-0.85,4.87l-0.04,0.23h2.2h10.77 L160.15,3.46z M131.65,34.9c0-2.33,0.55-5.27,1.65-8.79c1.09-3.53,2.88-5.29,5.36-5.29c1.03,0,1.92,0.33,2.65,1 c0.41,0.37,0.69,0.79,0.87,1.26c0.14,0.37,0.23,0.75,0.23,1.17c0,0.4-0.04,0.78-0.11,1.14l-1.66,9.51c-0.84,3.07-2.55,4.6-5.11,4.6 c-0.6,0-1.13-0.09-1.6-0.26C132.41,38.69,131.65,37.25,131.65,34.9"></path><polygon class="st0" points="180.77,3.46 181.12,1.57 167.23,1.57 158.98,47.12 161.2,47.12 172.87,47.12 "></polygon><path class="st0" d="M194.98,34.78c0-0.45,0.06-1.13,0.18-2.05h25.15c0.26-1.44,0.4-2.72,0.4-3.83c0-4.13-1.15-7.56-3.42-10.31 c-0.43-0.55-0.91-1.06-1.44-1.55c-3.24-2.97-7.6-4.47-13.07-4.47c-6.45,0-11.68,1.92-15.69,5.76c-4,3.84-6,8.44-6,13.79 c0,4.94,1.7,8.84,5.08,11.7c0.02,0.02,0.03,0.03,0.06,0.05c3.38,2.82,7.77,4.24,13.19,4.24c4.34,0,8.28-1.02,11.84-3.06 c3-1.73,5.3-3.9,6.89-6.52c0.29-0.49,0.57-0.98,0.83-1.5l-12.3-1.83c-1.22,2.85-3.32,4.27-6.28,4.27c-1.19,0-2.24-0.24-3.11-0.72 c-0.28-0.15-0.54-0.32-0.78-0.52C195.49,37.41,194.98,36.26,194.98,34.78 M198.56,21.81c1.25-1.08,2.65-1.62,4.19-1.62 c1.45,0,2.57,0.45,3.38,1.34c0.3,0.33,0.52,0.69,0.7,1.05c0.33,0.63,0.51,1.33,0.51,2.08c0,0.38-0.06,0.92-0.18,1.6h-8.51h-2.41 C196.53,24.37,197.3,22.88,198.56,21.81"></path><path class="st0" d="M33.82,63.49l-0.96,0.24c-0.09-0.86-0.34-1.45-0.71-1.78c-0.39-0.33-0.83-0.5-1.33-0.5 c-0.59,0-1.09,0.2-1.51,0.6c-0.42,0.4-0.77,1-1.02,1.8c-0.26,0.8-0.39,1.54-0.39,2.24c0,0.88,0.19,1.55,0.58,2.02 c0.39,0.48,0.89,0.71,1.53,0.71c1,0,1.79-0.69,2.38-2.06l0.88,0.33c-0.65,1.75-1.75,2.62-3.29,2.62c-1.02,0-1.81-0.36-2.37-1.08 c-0.55-0.72-0.84-1.64-0.84-2.75c0-1.33,0.38-2.55,1.12-3.66c0.75-1.1,1.71-1.65,2.9-1.65c0.76,0,1.43,0.23,2,0.69 C33.35,61.73,33.7,62.47,33.82,63.49"></path><path class="st0" d="M35.75,69.57h-1.01l1.1-6.52h1l-0.32,1.71c0.35-0.67,0.72-1.15,1.1-1.45c0.38-0.3,0.83-0.45,1.35-0.45 c0.06,0,0.13,0,0.21,0.01l-0.17,1.03l-0.24-0.01c-0.4,0-0.72,0.08-0.97,0.23c-0.26,0.15-0.48,0.36-0.69,0.63 c-0.21,0.27-0.4,0.62-0.57,1.02c-0.18,0.41-0.36,1.18-0.55,2.34L35.75,69.57z"></path><path class="st0" d="M45.38,68.04c-0.67,1.14-1.61,1.71-2.82,1.71c-0.82,0-1.49-0.27-2-0.8c-0.52-0.54-0.77-1.26-0.77-2.17 c0-1.12,0.32-2.06,0.96-2.81c0.64-0.75,1.44-1.12,2.39-1.12c0.47,0,0.9,0.1,1.31,0.3c0.41,0.2,0.72,0.52,0.95,0.95 c0.22,0.43,0.33,0.94,0.33,1.56c0,0.22-0.02,0.47-0.06,0.74h-4.8c-0.03,0.21-0.04,0.37-0.04,0.51c0,0.6,0.16,1.08,0.47,1.45 c0.31,0.37,0.74,0.55,1.27,0.55c0.37,0,0.7-0.08,1-0.25c0.3-0.17,0.62-0.5,0.96-1.02L45.38,68.04z M40.99,65.65h3.7 c0.01-0.14,0.02-0.24,0.02-0.31c0-0.53-0.15-0.95-0.45-1.26c-0.31-0.31-0.7-0.47-1.17-0.47c-0.55,0-1.01,0.2-1.39,0.61 C41.33,64.62,41.09,65.1,40.99,65.65"></path><path class="st0" d="M52.44,69.57h-1.02c0-0.13,0-0.24,0-0.33c0-0.34,0.04-0.65,0.11-0.95c-0.65,0.97-1.47,1.45-2.44,1.45 c-0.61,0-1.11-0.19-1.49-0.56c-0.39-0.37-0.58-0.84-0.58-1.4c0-0.63,0.28-1.17,0.84-1.61c0.56-0.45,1.59-0.67,3.12-0.67 c0.14,0,0.46,0.01,0.98,0.04c0.05-0.28,0.07-0.51,0.07-0.68c0-0.82-0.5-1.24-1.5-1.24c-0.88,0-1.51,0.37-1.89,1.1l-0.95-0.41 c0.51-0.98,1.44-1.48,2.77-1.48c0.74,0,1.36,0.16,1.85,0.48c0.5,0.33,0.75,0.78,0.75,1.38c0,0.24-0.17,1.37-0.5,3.38 c-0.09,0.55-0.13,0.95-0.13,1.21C52.43,69.33,52.44,69.42,52.44,69.57 M51.82,66.29c-0.31-0.03-0.61-0.04-0.88-0.04 c-1.88,0-2.81,0.53-2.81,1.58c0,0.33,0.1,0.59,0.3,0.79c0.21,0.2,0.48,0.3,0.85,0.3c0.58,0,1.11-0.24,1.6-0.74 C51.37,67.68,51.69,67.05,51.82,66.29"></path><path class="st0" d="M56.77,63.83l-0.6,3.53c-0.08,0.4-0.11,0.67-0.11,0.81c0,0.48,0.27,0.72,0.82,0.72c0.19,0,0.49-0.02,0.89-0.06 l-0.1,0.8c-0.01,0-0.07,0-0.19,0.02c-0.36,0.04-0.62,0.06-0.78,0.06c-1.09,0-1.63-0.48-1.63-1.43c0-0.25,0.06-0.7,0.17-1.35 l0.51-3.1h-0.99l0.13-0.78h1.02l0.25-1.58l0.99-0.09l-0.27,1.66h1.48l-0.14,0.78H56.77z"></path><path class="st0" d="M60.39,69.57h-1l1.09-6.52h1.01L60.39,69.57z M61.83,61.98h-1.3l0.2-1.19h1.31L61.83,61.98z"></path><path class="st0" d="M68.11,69.57h-0.96l0.63-3.75c0.07-0.43,0.1-0.74,0.1-0.93c0-0.34-0.1-0.63-0.32-0.86 c-0.21-0.24-0.51-0.36-0.9-0.36c-0.49,0-0.95,0.24-1.39,0.71c-0.44,0.47-0.78,1.42-1.03,2.86l-0.4,2.34h-0.94l1.1-6.52h0.86 l-0.24,1.45c0.56-1.09,1.33-1.63,2.29-1.63c0.57,0,1.04,0.17,1.4,0.52c0.35,0.35,0.54,0.81,0.54,1.37c0,0.26-0.04,0.61-0.11,1.04 L68.11,69.57z"></path><path class="st0" d="M76.93,62.63c-0.24-0.01-0.43-0.01-0.53-0.01c-0.6,0-0.97,0.27-1.12,0.82c0.57,0.44,0.86,0.98,0.86,1.61 c0,0.65-0.23,1.21-0.71,1.67c-0.48,0.47-1.1,0.7-1.86,0.7c-0.43,0-0.85-0.09-1.26-0.27c-0.56,0.25-0.84,0.54-0.84,0.87 c0,0.18,0.09,0.29,0.26,0.35c0.16,0.05,0.55,0.09,1.15,0.1c0.91,0.01,1.55,0.05,1.94,0.12c0.38,0.07,0.69,0.23,0.94,0.5 c0.25,0.26,0.38,0.59,0.38,0.98c0,0.62-0.25,1.11-0.75,1.47c-0.49,0.35-1.27,0.53-2.33,0.53c-2.16,0-3.24-0.52-3.24-1.56 c0-0.65,0.4-1.12,1.2-1.41c-0.33-0.19-0.5-0.47-0.5-0.84c0-0.62,0.45-1.1,1.34-1.45c-0.48-0.36-0.73-0.86-0.73-1.51 c0-0.65,0.25-1.2,0.73-1.64c0.48-0.45,1.11-0.66,1.88-0.66c0.3,0,0.64,0.06,1.04,0.18c0.18-0.58,0.42-0.97,0.72-1.16 c0.29-0.19,0.65-0.28,1.06-0.28c0.16,0,0.34,0.02,0.54,0.06L76.93,62.63z M71.63,69.38c-0.56,0.17-0.84,0.47-0.84,0.9 c0,0.36,0.23,0.62,0.7,0.79c0.46,0.17,1.04,0.25,1.74,0.25c1.29,0,1.93-0.35,1.93-1.06c0-0.2-0.09-0.37-0.27-0.53 c-0.18-0.15-0.68-0.23-1.5-0.24C72.65,69.5,72.07,69.46,71.63,69.38 M73.52,66.7c0.47,0,0.86-0.15,1.15-0.43 c0.3-0.29,0.44-0.68,0.44-1.16c0-0.41-0.14-0.74-0.41-0.99c-0.27-0.24-0.61-0.37-1.04-0.37c-0.45,0-0.83,0.15-1.12,0.44 c-0.29,0.29-0.43,0.66-0.43,1.11c0,0.41,0.12,0.74,0.37,1C72.74,66.57,73.08,66.7,73.52,66.7"></path><polygon class="st0" points="79.19,69.57 77.74,69.57 77.99,68.09 79.45,68.09 "></polygon><polygon class="st0" points="92.74,69.57 87.32,69.57 88.78,60.79 89.85,60.79 88.54,68.64 92.9,68.64 "></polygon><path class="st0" d="M99.94,68.04c-0.67,1.14-1.61,1.71-2.82,1.71c-0.82,0-1.49-0.27-2-0.8c-0.52-0.54-0.78-1.26-0.78-2.17 c0-1.12,0.32-2.06,0.96-2.81c0.64-0.75,1.44-1.12,2.4-1.12c0.47,0,0.9,0.1,1.31,0.3c0.41,0.2,0.72,0.52,0.95,0.95 c0.22,0.43,0.33,0.94,0.33,1.56c0,0.22-0.02,0.47-0.06,0.74h-4.8c-0.03,0.21-0.04,0.37-0.04,0.51c0,0.6,0.15,1.08,0.47,1.45 c0.31,0.37,0.73,0.55,1.27,0.55c0.37,0,0.71-0.08,1.01-0.25c0.29-0.17,0.61-0.5,0.96-1.02L99.94,68.04z M95.57,65.65h3.7 c0.01-0.14,0.01-0.24,0.01-0.31c0-0.53-0.15-0.95-0.45-1.26c-0.3-0.31-0.69-0.47-1.17-0.47c-0.54,0-1.01,0.2-1.38,0.61 C95.9,64.62,95.66,65.1,95.57,65.65"></path><path class="st0" d="M107.01,69.57h-1.03c0-0.13,0-0.24,0-0.33c0-0.34,0.04-0.65,0.12-0.95c-0.66,0.97-1.47,1.45-2.45,1.45 c-0.61,0-1.11-0.19-1.49-0.56c-0.39-0.37-0.59-0.84-0.59-1.4c0-0.63,0.28-1.17,0.84-1.61c0.56-0.45,1.6-0.67,3.12-0.67 c0.14,0,0.47,0.01,0.99,0.04c0.05-0.28,0.07-0.51,0.07-0.68c0-0.82-0.5-1.24-1.5-1.24c-0.88,0-1.5,0.37-1.88,1.1l-0.96-0.41 c0.51-0.98,1.44-1.48,2.77-1.48c0.74,0,1.35,0.16,1.85,0.48c0.5,0.33,0.75,0.78,0.75,1.38c0,0.24-0.17,1.37-0.5,3.38 c-0.09,0.55-0.13,0.95-0.13,1.21C107,69.33,107,69.42,107.01,69.57 M106.39,66.29c-0.31-0.03-0.6-0.04-0.88-0.04 c-1.88,0-2.81,0.53-2.81,1.58c0,0.33,0.1,0.59,0.31,0.79c0.21,0.2,0.49,0.3,0.85,0.3c0.57,0,1.11-0.24,1.6-0.74 C105.94,67.68,106.25,67.05,106.39,66.29"></path><path class="st0" d="M114.44,69.57h-0.92l0.25-1.29c-0.59,0.98-1.33,1.47-2.25,1.47c-0.69,0-1.22-0.26-1.6-0.78 c-0.37-0.52-0.56-1.18-0.56-1.97c0-0.99,0.28-1.92,0.85-2.8c0.57-0.87,1.32-1.31,2.25-1.31c0.89,0,1.52,0.4,1.9,1.22l0.56-3.32h0.98 L114.44,69.57z M111.8,68.95c0.65,0,1.19-0.35,1.63-1.05c0.44-0.71,0.66-1.51,0.66-2.43c0-0.55-0.15-0.99-0.47-1.31 c-0.32-0.32-0.68-0.47-1.09-0.47c-0.65,0-1.16,0.36-1.54,1.09c-0.37,0.73-0.56,1.52-0.56,2.37c0,0.58,0.13,1.02,0.38,1.33 C111.06,68.79,111.39,68.95,111.8,68.95"></path><path class="st0" d="M117.95,69.57h-1.02l1.1-6.52h1.01L117.95,69.57z M119.38,61.98h-1.31l0.2-1.19h1.3L119.38,61.98z"></path><path class="st0" d="M125.67,69.57h-0.96l0.63-3.75c0.07-0.43,0.1-0.74,0.1-0.93c0-0.34-0.1-0.63-0.31-0.86 c-0.21-0.24-0.51-0.36-0.9-0.36c-0.49,0-0.95,0.24-1.39,0.71c-0.44,0.47-0.79,1.42-1.03,2.86l-0.4,2.34h-0.93l1.1-6.52h0.86 l-0.24,1.45c0.56-1.09,1.33-1.63,2.29-1.63c0.57,0,1.03,0.17,1.4,0.52c0.36,0.35,0.54,0.81,0.54,1.37c0,0.26-0.04,0.61-0.11,1.04 L125.67,69.57z"></path><path class="st0" d="M134.48,62.63c-0.24-0.01-0.42-0.01-0.52-0.01c-0.6,0-0.97,0.27-1.12,0.82c0.57,0.44,0.86,0.98,0.86,1.61 c0,0.65-0.24,1.21-0.71,1.67c-0.48,0.47-1.1,0.7-1.86,0.7c-0.43,0-0.85-0.09-1.26-0.27c-0.56,0.25-0.84,0.54-0.84,0.87 c0,0.18,0.08,0.29,0.25,0.35c0.17,0.05,0.55,0.09,1.15,0.1c0.91,0.01,1.56,0.05,1.93,0.12c0.39,0.07,0.7,0.23,0.94,0.5 c0.25,0.26,0.37,0.59,0.37,0.98c0,0.62-0.25,1.11-0.75,1.47c-0.5,0.35-1.28,0.53-2.33,0.53c-2.16,0-3.24-0.52-3.24-1.56 c0-0.65,0.4-1.12,1.2-1.41c-0.33-0.19-0.51-0.47-0.51-0.84c0-0.62,0.45-1.1,1.35-1.45c-0.49-0.36-0.73-0.86-0.73-1.51 c0-0.65,0.24-1.2,0.73-1.64c0.48-0.45,1.11-0.66,1.88-0.66c0.3,0,0.64,0.06,1.04,0.18c0.18-0.58,0.42-0.97,0.71-1.16 c0.29-0.19,0.64-0.28,1.05-0.28c0.16,0,0.34,0.02,0.55,0.06L134.48,62.63z M129.18,69.38c-0.56,0.17-0.84,0.47-0.84,0.9 c0,0.36,0.23,0.62,0.69,0.79c0.46,0.17,1.04,0.25,1.75,0.25c1.28,0,1.93-0.35,1.93-1.06c0-0.2-0.09-0.37-0.27-0.53 c-0.18-0.15-0.68-0.23-1.5-0.24C130.21,69.5,129.63,69.46,129.18,69.38 M131.08,66.7c0.47,0,0.86-0.15,1.16-0.43 c0.29-0.29,0.44-0.68,0.44-1.16c0-0.41-0.13-0.74-0.41-0.99c-0.27-0.24-0.62-0.37-1.04-0.37c-0.45,0-0.83,0.15-1.11,0.44 c-0.29,0.29-0.44,0.66-0.44,1.11c0,0.41,0.12,0.74,0.37,1C130.3,66.57,130.64,66.7,131.08,66.7"></path><polygon class="st0" points="136.74,69.57 135.3,69.57 135.54,68.09 137,68.09 "></polygon><path class="st0" d="M151.48,62.62l-0.93,0.35c-0.16-0.48-0.45-0.87-0.85-1.16c-0.41-0.29-0.87-0.43-1.39-0.43 c-0.64,0-1.11,0.15-1.43,0.46c-0.31,0.3-0.47,0.66-0.47,1.08c0,0.27,0.07,0.51,0.21,0.71c0.14,0.19,0.32,0.34,0.55,0.44 c0.22,0.09,0.63,0.22,1.23,0.37c0.79,0.2,1.35,0.38,1.68,0.54c0.33,0.16,0.61,0.42,0.84,0.77c0.24,0.35,0.36,0.77,0.36,1.26 c0,0.83-0.3,1.49-0.91,2c-0.6,0.5-1.41,0.76-2.41,0.76c-1.9,0-3.09-0.81-3.6-2.44l0.96-0.35c0.4,1.27,1.28,1.9,2.64,1.9 c0.72,0,1.28-0.17,1.66-0.53c0.39-0.35,0.57-0.76,0.57-1.22c0-0.28-0.07-0.53-0.2-0.74c-0.14-0.21-0.32-0.37-0.54-0.47 c-0.22-0.1-0.57-0.21-1.07-0.33c-0.75-0.18-1.34-0.36-1.75-0.55c-0.41-0.19-0.73-0.45-0.96-0.79c-0.24-0.34-0.35-0.74-0.35-1.2 c0-0.7,0.27-1.29,0.8-1.76c0.53-0.47,1.23-0.71,2.1-0.71C149.84,60.55,150.92,61.24,151.48,62.62"></path><path class="st0" d="M154.92,63.83l-0.6,3.53c-0.07,0.4-0.11,0.67-0.11,0.81c0,0.48,0.28,0.72,0.83,0.72c0.19,0,0.49-0.02,0.89-0.06 l-0.11,0.8c-0.01,0-0.06,0-0.19,0.02c-0.35,0.04-0.62,0.06-0.79,0.06c-1.08,0-1.62-0.48-1.62-1.43c0-0.25,0.06-0.7,0.17-1.35 l0.52-3.1h-1l0.14-0.78h1.02l0.26-1.58l0.98-0.09l-0.27,1.66h1.47l-0.13,0.78H154.92z"></path><path class="st0" d="M162.78,69.57h-1.02c0-0.13-0.01-0.24-0.01-0.33c0-0.34,0.04-0.65,0.12-0.95c-0.66,0.97-1.47,1.45-2.45,1.45 c-0.61,0-1.11-0.19-1.49-0.56c-0.39-0.37-0.58-0.84-0.58-1.4c0-0.63,0.28-1.17,0.84-1.61c0.56-0.45,1.6-0.67,3.12-0.67 c0.14,0,0.46,0.01,0.98,0.04c0.05-0.28,0.07-0.51,0.07-0.68c0-0.82-0.5-1.24-1.5-1.24c-0.87,0-1.5,0.37-1.88,1.1l-0.94-0.41 c0.51-0.98,1.43-1.48,2.77-1.48c0.74,0,1.35,0.16,1.85,0.48c0.49,0.33,0.74,0.78,0.74,1.38c0,0.24-0.16,1.37-0.49,3.38 c-0.09,0.55-0.13,0.95-0.13,1.21C162.76,69.33,162.77,69.42,162.78,69.57 M162.15,66.29c-0.31-0.03-0.6-0.04-0.89-0.04 c-1.87,0-2.81,0.53-2.81,1.58c0,0.33,0.11,0.59,0.31,0.79c0.21,0.2,0.49,0.3,0.85,0.3c0.57,0,1.1-0.24,1.6-0.74 C161.71,67.68,162.02,67.05,162.15,66.29"></path><path class="st0" d="M166.08,69.57h-1l1.1-6.52h0.99l-0.31,1.71c0.35-0.67,0.71-1.15,1.09-1.45c0.39-0.3,0.83-0.45,1.35-0.45 c0.06,0,0.14,0,0.22,0.01l-0.17,1.03l-0.24-0.01c-0.4,0-0.73,0.08-0.97,0.23c-0.26,0.15-0.48,0.36-0.68,0.63 c-0.21,0.27-0.4,0.62-0.58,1.02c-0.17,0.41-0.35,1.18-0.54,2.34L166.08,69.57z"></path><path class="st0" d="M172.6,63.83l-0.6,3.53c-0.07,0.4-0.11,0.67-0.11,0.81c0,0.48,0.28,0.72,0.83,0.72c0.19,0,0.49-0.02,0.89-0.06 l-0.1,0.8c-0.01,0-0.07,0-0.19,0.02c-0.35,0.04-0.61,0.06-0.78,0.06c-1.08,0-1.62-0.48-1.62-1.43c0-0.25,0.06-0.7,0.17-1.35 l0.52-3.1h-0.99l0.13-0.78h1.02l0.25-1.58l0.99-0.09l-0.27,1.66h1.47l-0.13,0.78H172.6z"></path><path class="st0" d="M181.24,63.05l-1.09,6.52h-0.88l0.26-1.57c-0.58,1.17-1.37,1.75-2.37,1.75c-0.39,0-0.72-0.09-1.01-0.27 c-0.28-0.18-0.48-0.4-0.61-0.65c-0.12-0.25-0.18-0.56-0.18-0.94c0-0.24,0.04-0.64,0.14-1.19l0.62-3.65h1.01l-0.67,3.96 c-0.08,0.45-0.12,0.73-0.12,0.83c0,0.34,0.09,0.61,0.3,0.8c0.2,0.19,0.46,0.29,0.78,0.29c0.54,0,1.04-0.29,1.5-0.88 c0.46-0.59,0.78-1.42,0.96-2.49l0.41-2.5H181.24z"></path><path class="st0" d="M183.26,71.76h-1l1.45-8.69h0.94l-0.22,1.35c0.6-0.99,1.33-1.49,2.19-1.49c0.6,0,1.11,0.24,1.52,0.73 c0.41,0.49,0.61,1.17,0.61,2.05c0,1.03-0.28,1.95-0.86,2.79c-0.57,0.83-1.29,1.25-2.17,1.25c-0.83,0-1.47-0.37-1.93-1.13 L183.26,71.76z M185.56,68.93c0.71,0,1.25-0.36,1.59-1.07c0.34-0.71,0.51-1.49,0.51-2.32c0-0.58-0.13-1.03-0.41-1.33 c-0.27-0.3-0.59-0.45-0.98-0.45c-0.55,0-1.05,0.35-1.52,1.03c-0.46,0.68-0.68,1.46-0.68,2.33c0,0.55,0.13,0.98,0.4,1.32 C184.74,68.77,185.1,68.93,185.56,68.93"></path><path class="st0" d="M195.43,64.45l-0.84,0.35c-0.28-0.73-0.86-1.09-1.71-1.09c-0.39,0-0.71,0.1-0.94,0.3 c-0.24,0.2-0.36,0.44-0.36,0.71c0,0.28,0.09,0.48,0.27,0.62c0.19,0.13,0.54,0.26,1.07,0.37l0.41,0.1c0.45,0.1,0.8,0.22,1.05,0.34 c0.25,0.12,0.46,0.32,0.63,0.59c0.17,0.27,0.26,0.57,0.26,0.92c0,0.58-0.23,1.07-0.69,1.48c-0.46,0.41-1.08,0.61-1.87,0.61 c-0.57,0-1.1-0.11-1.59-0.33c-0.5-0.22-0.92-0.7-1.27-1.45l0.93-0.32c0.31,0.86,0.97,1.29,1.97,1.29c0.48,0,0.86-0.11,1.11-0.32 c0.27-0.22,0.39-0.48,0.39-0.81c0-0.25-0.07-0.45-0.23-0.6c-0.16-0.15-0.51-0.29-1.05-0.41l-0.34-0.08 c-0.5-0.12-0.88-0.24-1.15-0.37c-0.27-0.13-0.49-0.32-0.67-0.58c-0.18-0.26-0.27-0.55-0.27-0.88c0-0.54,0.21-1,0.63-1.39 c0.42-0.38,0.99-0.58,1.72-0.58C194.2,62.92,195.05,63.43,195.43,64.45"></path><polygon class="st0" points="198.55,69.57 197.1,69.57 197.34,68.09 198.8,68.09 "></polygon><rect x="204.17" y="65.29" class="st0" width="20.28" height="0.63"></rect><rect x="0.4" y="65.29" class="st0" width="20.75" height="0.63"></rect><rect x="0.4" y="0.5" class="st2" width="224.05" height="71.57"></rect></svg>